<svg width="499.99999999999994" height="499.99999999999994" xmlns="http://www.w3.org/2000/svg">

 <title/>
 <g>
  <title>background</title>
  <rect fill="none" id="canvas_background" height="402" width="582" y="-1" x="-1"/>
 </g>
 <g>
  <title>Layer 1</title>
  <path fill="#d8d8d8" id="svg_1" d="m484.85,124.75a144.17,144.17 0 0 0 -2.32,-25.29c-1.94,-10.19 -4.67,-20.12 -9.55,-29.33a101.85,101.85 0 0 0 -19.59,-26.13a97.14,97.14 0 0 0 -42.76,-24.4c-14.83,-4 -30,-4.84 -45.21,-4.82a0.46,0.46 0 0 1 -0.09,-0.23l-230.74,0c0,0.08 0,0.16 0,0.23c-8.65,0.16 -17.32,0.09 -25.92,1.16a123.46,123.46 0 0 0 -27.67,6.21a97.48,97.48 0 0 0 -36.75,24.12a97.15,97.15 0 0 0 -24.57,42.91c-3.94,14.72 -4.8,29.73 -4.82,44.85l-0.16,231.67l0,0c0.28,10.45 0.37,21 2.13,31.36c1.87,11 4.54,21.71 9.64,31.69a101.36,101.36 0 0 0 28.3,34.25a91.92,91.92 0 0 0 28.31,15.35c15.12,4.88 30.72,6.75 46.55,6.84c9.88,0.06 19.74,0.31 29.62,0.27c35.45,-0.15 70.89,0 106.34,0l0,-157.24l-52.88,0l0,-63.22l52.89,0l0,-45.3s-3.82,-75.25 70.34,-81.25l56.16,0l0,57.25l-40.9,0s-17.44,3.3 -20.2,19.64l0,48.53l58.35,0l-6.54,60.53l-52.87,0l0,161q22.27,-0.11 44.55,-0.38a169.3,169.3 0 0 0 28.23,-3a95.61,95.61 0 0 0 47.28,-23.02c15.78,-14.08 26.43,-31.3 31.24,-52.09c3.15,-13.59 3.93,-27.38 4.07,-41.21l0,-2.76c-0.01,-1.07 -0.42,-235.1 -0.46,-238.19z" class="cls-1"/>
 </g>
</svg>